<svg id="logosandtypes_com" xmlns="http://www.w3.org/2000/svg" viewBox="0 0 150 150.2"><path d="M0 .2h150v150H0V.2z" fill="none"/><path d="M95.7 130.9H25v-17.1s6.8.2 9.8 0c1.3-.1 2.7-.7 3.9-1.2 2.8-1.1 3.9-3.5 4.2-6.2.3-2.1.3-57.9 0-60-.6-4.4-2.8-6.6-7.2-7.2-2.6-.3-10.7-.4-10.7-.4V21.7h52.2c1.1-1.6 2.1-3.2 3.3-4.7C85 11.1 90.7 6.8 98.1 5.2c8.2-1.8 16.2-1 23.6 3.3 6 3.5 9.4 8.9 10.5 15.7.9 5.1.6 10.1-1.5 14.8-2.9 6.5-8 10.1-14.9 11.2-4.1.6-8.2.2-11.9-1.8-5.1-2.8-8-7-8-12.9 0-6.1 2.7-10.6 8.1-13.4 1.3-.7 2.8-1.2 4.2-1.8-.1-.1-.2-.2-.4-.3-5.1-2.7-10.2-2.1-15.2 0-4.6 2-7.6 5.6-9.9 9.9-2.5 4.8-3.7 10-4.5 15.3-.6 4.6-.9 9.3-.8 13.9 0 14.4.2 46.4.5 47.9.7 3.9 2.6 5.8 6.6 6.4 2 .2 11.3.4 11.3.4l-.1 17.1z"/></svg>